{
    "asset" : {
        "generator" : "Khronos glTF Blender I/O v1.7.33",
        "version" : "2.0"
    },
    "scene" : 0,
    "scenes" : [
        {
            "name" : "Scene",
            "nodes" : [
                5,
                8,
                9
            ]
        }
    ],
    "nodes" : [
        {
            "mesh" : 0,
            "name" : "Mesh_0"
        },
        {
            "mesh" : 1,
            "name" : "Mesh_1"
        },
        {
            "mesh" : 2,
            "name" : "Mesh_2"
        },
        {
            "mesh" : 3,
            "name" : "Mesh_3"
        },
        {
            "mesh" : 4,
            "name" : "Mesh_4"
        },
        {
            "children" : [
                0,
                1,
                2,
                3,
                4
            ],
            "name" : "Body",
            "scale" : [
                2.2024660110473633,
                2.202465772628784,
                2.2024660110473633
            ]
        },
        {
            "mesh" : 5,
            "name" : "Mesh_5"
        },
        {
            "mesh" : 6,
            "name" : "Mesh_6"
        },
        {
            "children" : [
                6,
                7
            ],
            "name" : "Propeller",
            "scale" : [
                2.2165932655334473,
                2.216593027114868,
                2.2165932655334473
            ],
            "translation" : [
                -1.2047936916351318,
                0.7086436152458191,
                0
            ]
        },
        {
            "mesh" : 7,
            "name" : "Skybox",
            "scale" : [
                20,
                20,
                20
            ]
        }
    ],
    "materials" : [
        {
            "doubleSided" : true,
            "name" : "White",
            "pbrMetallicRoughness" : {
                "baseColorFactor" : [
                    0.800000011920929,
                    0.800000011920929,
                    0.800000011920929,
                    1
                ],
                "metallicFactor" : 0,
                "roughnessFactor" : 0.6000000238418579
            }
        },
        {
            "doubleSided" : true,
            "name" : "material",
            "pbrMetallicRoughness" : {
                "baseColorFactor" : [
                    0.989963710308075,
                    0,
                    0,
                    1
                ],
                "metallicFactor" : 0,
                "roughnessFactor" : 0.6000000238418579
            }
        },
        {
            "doubleSided" : true,
            "name" : "Green_Gras",
            "pbrMetallicRoughness" : {
                "baseColorFactor" : [
                    0.0037727400194853544,
                    0.257305771112442,
                    0,
                    1
                ],
                "metallicFactor" : 0,
                "roughnessFactor" : 0.6000000238418579
            }
        },
        {
            "doubleSided" : true,
            "name" : "Black",
            "pbrMetallicRoughness" : {
                "baseColorFactor" : [
                    0,
                    0,
                    0,
                    1
                ],
                "metallicFactor" : 0,
                "roughnessFactor" : 0.6000000238418579
            }
        },
        {
            "doubleSided" : true,
            "name" : "ND-SOB",
            "pbrMetallicRoughness" : {
                "baseColorFactor" : [
                    0.07702881842851639,
                    0.5389643907546997,
                    0.7926760911941528,
                    1
                ],
                "metallicFactor" : 0,
                "roughnessFactor" : 0.6000000238418579
            }
        },
        {
            "doubleSided" : true,
            "name" : "Material.001",
            "pbrMetallicRoughness" : {
                "baseColorTexture" : {
                    "index" : 0
                },
                "metallicFactor" : 0,
                "roughnessFactor" : 0.5
            }
        }
    ],
    "meshes" : [
        {
            "name" : "Mesh_0",
            "primitives" : [
                {
                    "attributes" : {
                        "POSITION" : 0,
                        "NORMAL" : 1,
                        "TEXCOORD_0" : 2
                    },
                    "indices" : 3,
                    "material" : 0
                }
            ]
        },
        {
            "name" : "Mesh_1",
            "primitives" : [
                {
                    "attributes" : {
                        "POSITION" : 4,
                        "NORMAL" : 5,
                        "TEXCOORD_0" : 6
                    },
                    "indices" : 7,
                    "material" : 1
                }
            ]
        },
        {
            "name" : "Mesh_2",
            "primitives" : [
                {
                    "attributes" : {
                        "POSITION" : 8,
                        "NORMAL" : 9,
                        "TEXCOORD_0" : 10
                    },
                    "indices" : 11,
                    "material" : 2
                }
            ]
        },
        {
            "name" : "Mesh_3",
            "primitives" : [
                {
                    "attributes" : {
                        "POSITION" : 12,
                        "NORMAL" : 13,
                        "TEXCOORD_0" : 14
                    },
                    "indices" : 15,
                    "material" : 3
                }
            ]
        },
        {
            "name" : "Mesh_4",
            "primitives" : [
                {
                    "attributes" : {
                        "POSITION" : 16,
                        "NORMAL" : 17,
                        "TEXCOORD_0" : 18
                    },
                    "indices" : 19,
                    "material" : 4
                }
            ]
        },
        {
            "name" : "Mesh_5",
            "primitives" : [
                {
                    "attributes" : {
                        "POSITION" : 20,
                        "NORMAL" : 21,
                        "TEXCOORD_0" : 22
                    },
                    "indices" : 23,
                    "material" : 0
                }
            ]
        },
        {
            "name" : "Mesh_6",
            "primitives" : [
                {
                    "attributes" : {
                        "POSITION" : 24,
                        "NORMAL" : 25,
                        "TEXCOORD_0" : 26
                    },
                    "indices" : 27,
                    "material" : 1
                }
            ]
        },
        {
            "name" : "Cube.001",
            "primitives" : [
                {
                    "attributes" : {
                        "POSITION" : 28,
                        "NORMAL" : 29,
                        "TEXCOORD_0" : 30
                    },
                    "indices" : 31,
                    "material" : 5
                }
            ]
        }
    ],
    "textures" : [
        {
            "sampler" : 0,
            "source" : 0
        }
    ],
    "images" : [
        {
            "mimeType" : "image/png",
            "name" : "floor",
            "uri" : "floor.png"
        }
    ],
    "accessors" : [
        {
            "bufferView" : 0,
            "componentType" : 5126,
            "count" : 1450,
            "max" : [
                1.281848669052124,
                0.6578990817070007,
                1.2532483339309692
            ],
            "min" : [
                -0.51973956823349,
                0.04063449054956436,
                -1.2532483339309692
            ],
            "type" : "VEC3"
        },
        {
            "bufferView" : 1,
            "componentType" : 5126,
            "count" : 1450,
            "type" : "VEC3"
        },
        {
            "bufferView" : 2,
            "componentType" : 5126,
            "count" : 1450,
            "type" : "VEC2"
        },
        {
            "bufferView" : 3,
            "componentType" : 5123,
            "count" : 3636,
            "type" : "SCALAR"
        },
        {
            "bufferView" : 4,
            "componentType" : 5126,
            "count" : 67,
            "max" : [
                1.159834623336792,
                0.665503203868866,
                1.2636624574661255
            ],
            "min" : [
                -0.03709347918629646,
                0.4934580624103546,
                -0.007414999883621931
            ],
            "type" : "VEC3"
        },
        {
            "bufferView" : 5,
            "componentType" : 5126,
            "count" : 67,
            "type" : "VEC3"
        },
        {
            "bufferView" : 6,
            "componentType" : 5126,
            "count" : 67,
            "type" : "VEC2"
        },
        {
            "bufferView" : 7,
            "componentType" : 5123,
            "count" : 84,
            "type" : "SCALAR"
        },
        {
            "bufferView" : 8,
            "componentType" : 5126,
            "count" : 30,
            "max" : [
                -0.019133109599351883,
                0.5002923011779785,
                -1.2532483339309692
            ],
            "min" : [
                -0.03709347918629646,
                0.4934580624103546,
                -1.2636624574661255
            ],
            "type" : "VEC3"
        },
        {
            "bufferView" : 9,
            "componentType" : 5126,
            "count" : 30,
            "type" : "VEC3"
        },
        {
            "bufferView" : 10,
            "componentType" : 5126,
            "count" : 30,
            "type" : "VEC2"
        },
        {
            "bufferView" : 11,
            "componentType" : 5123,
            "count" : 30,
            "type" : "SCALAR"
        },
        {
            "bufferView" : 12,
            "componentType" : 5126,
            "count" : 379,
            "max" : [
                0.05531257390975952,
                0.11230164766311646,
                0.35811448097229004
            ],
            "min" : [
                -0.3868560791015625,
                -0.002717302879318595,
                -0.35811448097229004
            ],
            "type" : "VEC3"
        },
        {
            "bufferView" : 13,
            "componentType" : 5126,
            "count" : 379,
            "type" : "VEC3"
        },
        {
            "bufferView" : 14,
            "componentType" : 5126,
            "count" : 379,
            "type" : "VEC2"
        },
        {
            "bufferView" : 15,
            "componentType" : 5123,
            "count" : 468,
            "type" : "SCALAR"
        },
        {
            "bufferView" : 16,
            "componentType" : 5126,
            "count" : 102,
            "max" : [
                0.2676147222518921,
                0.45605456829071045,
                0.1406390368938446
            ],
            "min" : [
                -0.29165345430374146,
                0.3301214873790741,
                -0.1406390368938446
            ],
            "type" : "VEC3"
        },
        {
            "bufferView" : 17,
            "componentType" : 5126,
            "count" : 102,
            "type" : "VEC3"
        },
        {
            "bufferView" : 18,
            "componentType" : 5126,
            "count" : 102,
            "type" : "VEC2"
        },
        {
            "bufferView" : 19,
            "componentType" : 5123,
            "count" : 144,
            "type" : "SCALAR"
        },
        {
            "bufferView" : 20,
            "componentType" : 5126,
            "count" : 285,
            "max" : [
                0.026122547686100006,
                0.0334223210811615,
                0.21229234337806702
            ],
            "min" : [
                -0.05965171009302139,
                -0.03342263028025627,
                -0.21229243278503418
            ],
            "type" : "VEC3"
        },
        {
            "bufferView" : 21,
            "componentType" : 5126,
            "count" : 285,
            "type" : "VEC3"
        },
        {
            "bufferView" : 22,
            "componentType" : 5126,
            "count" : 285,
            "type" : "VEC2"
        },
        {
            "bufferView" : 23,
            "componentType" : 5123,
            "count" : 360,
            "type" : "SCALAR"
        },
        {
            "bufferView" : 24,
            "componentType" : 5126,
            "count" : 48,
            "max" : [
                0.008118372410535812,
                0.012089105322957039,
                0.19020210206508636
            ],
            "min" : [
                -0.004168717656284571,
                -0.012089661322534084,
                -0.19027236104011536
            ],
            "type" : "VEC3"
        },
        {
            "bufferView" : 25,
            "componentType" : 5126,
            "count" : 48,
            "type" : "VEC3"
        },
        {
            "bufferView" : 26,
            "componentType" : 5126,
            "count" : 48,
            "type" : "VEC2"
        },
        {
            "bufferView" : 27,
            "componentType" : 5123,
            "count" : 72,
            "type" : "SCALAR"
        },
        {
            "bufferView" : 28,
            "componentType" : 5126,
            "count" : 24,
            "max" : [
                1,
                1,
                1
            ],
            "min" : [
                -1,
                -1,
                -1
            ],
            "type" : "VEC3"
        },
        {
            "bufferView" : 29,
            "componentType" : 5126,
            "count" : 24,
            "type" : "VEC3"
        },
        {
            "bufferView" : 30,
            "componentType" : 5126,
            "count" : 24,
            "type" : "VEC2"
        },
        {
            "bufferView" : 31,
            "componentType" : 5123,
            "count" : 36,
            "type" : "SCALAR"
        }
    ],
    "bufferViews" : [
        {
            "buffer" : 0,
            "byteLength" : 17400,
            "byteOffset" : 0
        },
        {
            "buffer" : 0,
            "byteLength" : 17400,
            "byteOffset" : 17400
        },
        {
            "buffer" : 0,
            "byteLength" : 11600,
            "byteOffset" : 34800
        },
        {
            "buffer" : 0,
            "byteLength" : 7272,
            "byteOffset" : 46400
        },
        {
            "buffer" : 0,
            "byteLength" : 804,
            "byteOffset" : 53672
        },
        {
            "buffer" : 0,
            "byteLength" : 804,
            "byteOffset" : 54476
        },
        {
            "buffer" : 0,
            "byteLength" : 536,
            "byteOffset" : 55280
        },
        {
            "buffer" : 0,
            "byteLength" : 168,
            "byteOffset" : 55816
        },
        {
            "buffer" : 0,
            "byteLength" : 360,
            "byteOffset" : 55984
        },
        {
            "buffer" : 0,
            "byteLength" : 360,
            "byteOffset" : 56344
        },
        {
            "buffer" : 0,
            "byteLength" : 240,
            "byteOffset" : 56704
        },
        {
            "buffer" : 0,
            "byteLength" : 60,
            "byteOffset" : 56944
        },
        {
            "buffer" : 0,
            "byteLength" : 4548,
            "byteOffset" : 57004
        },
        {
            "buffer" : 0,
            "byteLength" : 4548,
            "byteOffset" : 61552
        },
        {
            "buffer" : 0,
            "byteLength" : 3032,
            "byteOffset" : 66100
        },
        {
            "buffer" : 0,
            "byteLength" : 936,
            "byteOffset" : 69132
        },
        {
            "buffer" : 0,
            "byteLength" : 1224,
            "byteOffset" : 70068
        },
        {
            "buffer" : 0,
            "byteLength" : 1224,
            "byteOffset" : 71292
        },
        {
            "buffer" : 0,
            "byteLength" : 816,
            "byteOffset" : 72516
        },
        {
            "buffer" : 0,
            "byteLength" : 288,
            "byteOffset" : 73332
        },
        {
            "buffer" : 0,
            "byteLength" : 3420,
            "byteOffset" : 73620
        },
        {
            "buffer" : 0,
            "byteLength" : 3420,
            "byteOffset" : 77040
        },
        {
            "buffer" : 0,
            "byteLength" : 2280,
            "byteOffset" : 80460
        },
        {
            "buffer" : 0,
            "byteLength" : 720,
            "byteOffset" : 82740
        },
        {
            "buffer" : 0,
            "byteLength" : 576,
            "byteOffset" : 83460
        },
        {
            "buffer" : 0,
            "byteLength" : 576,
            "byteOffset" : 84036
        },
        {
            "buffer" : 0,
            "byteLength" : 384,
            "byteOffset" : 84612
        },
        {
            "buffer" : 0,
            "byteLength" : 144,
            "byteOffset" : 84996
        },
        {
            "buffer" : 0,
            "byteLength" : 288,
            "byteOffset" : 85140
        },
        {
            "buffer" : 0,
            "byteLength" : 288,
            "byteOffset" : 85428
        },
        {
            "buffer" : 0,
            "byteLength" : 192,
            "byteOffset" : 85716
        },
        {
            "buffer" : 0,
            "byteLength" : 72,
            "byteOffset" : 85908
        }
    ],
    "samplers" : [
        {
            "magFilter" : 9729,
            "minFilter" : 9987
        }
    ],
    "buffers" : [
        {
            "byteLength" : 85980,
            "uri" : "scene.bin"
        }
    ]
}
